<svg fill="#000000" width="223.5mm" height="27.517mm" version="1.1" viewBox="0 0 223.5 27.517" xmlns="http://www.w3.org/2000/svg">
    <g transform="translate(-29.175 -86.475)">
        <path d="m56.691 100.23a13.758 13.758 0 0 1-13.758 13.758 13.758 13.758 0 0 1-13.758-13.758 13.758 13.758 0 0 1 13.758-13.759 13.758 13.758 0 0 1 13.759 13.758l-13.758 4.8e-4z"/>
        <g transform="translate(-390.16 -123.27)">
            <path d="m642.83 223.51c0 4.5701-3.4952 8.275-13.42 8.275-25.619-1.2188-18.639-16.298 0.27642-16.563 9.9246-1e-4 13.143 3.7177 13.143 8.2878-6.6344 3.3e-4 -32.5 1e-5 0 0zm-13.426 8.2612c-6.8694 0.0334-171.49-4.5771-171.49-8.2614-3.2e-4 -3.6843 151.36-8.2828 171.77-8.2877 2.2462 4.3739 3.3471 15.598-0.28196 16.549z" stroke-width=".8171"/>
        </g>
    </g>
</svg>
