<?xml version="1.0" encoding="UTF-8" standalone="no"?>
<svg
   xmlns:dc="http://purl.org/dc/elements/1.1/"
   xmlns:cc="http://creativecommons.org/ns#"
   xmlns:rdf="http://www.w3.org/1999/02/22-rdf-syntax-ns#"
   xmlns:svg="http://www.w3.org/2000/svg"
   xmlns="http://www.w3.org/2000/svg"
   xmlns:sodipodi="http://sodipodi.sourceforge.net/DTD/sodipodi-0.dtd"
   xmlns:inkscape="http://www.inkscape.org/namespaces/inkscape"
   width="283.87738mm"
   height="249.5856mm"
   version="1.1"
   viewBox="0 0 283.87739 249.58562"
   id="svg22"
   sodipodi:docname="burst-yellow.svg"
   inkscape:version="0.92.2 (5c3e80d, 2017-08-06)"
   style="fill:#9c8a6e">
  <metadata
     id="metadata28">
    <rdf:RDF>
      <cc:Work
         rdf:about="">
        <dc:format>image/svg+xml</dc:format>
        <dc:type
           rdf:resource="http://purl.org/dc/dcmitype/StillImage" />
        <dc:title></dc:title>
        <dc:title></dc:title>
      </cc:Work>
    </rdf:RDF>
  </metadata>
  <defs
     id="defs26" />
  <sodipodi:namedview
     pagecolor="#ffffff"
     bordercolor="#666666"
     borderopacity="1"
     objecttolerance="10"
     gridtolerance="10"
     guidetolerance="10"
     inkscape:pageopacity="0"
     inkscape:pageshadow="2"
     inkscape:window-width="3298"
     inkscape:window-height="1273"
     id="namedview24"
     showgrid="false"
     inkscape:zoom="1.363218"
     inkscape:cx="196.62257"
     inkscape:cy="453.79669"
     inkscape:window-x="0"
     inkscape:window-y="0"
     inkscape:window-maximized="0"
     inkscape:current-layer="svg22"
     fit-margin-top="0"
     fit-margin-left="0"
     fit-margin-right="0"
     fit-margin-bottom="0" />
  <g
     transform="translate(5.1173848,24.622318)"
     id="g20">
    <path
       d="m 278.76,100.24 c 0,4.5701 -5.2351,8.275 -20.1,8.275 -38.372,-1.2188 -27.917,-16.298 0.41401,-16.563 14.865,-1.06e-4 19.686,3.7177 19.686,8.2878 -9.9369,3.3e-4 -48.678,1e-5 0,0 z m -20.109,8.2612 c -10.289,0.0334 -256.85,-4.5771 -256.85,-8.2614 -4.796e-4,-3.6843 226.71,-8.2828 257.27,-8.2877 3.3643,4.3739 5.0133,15.598 -0.42231,16.549 z"
       id="path2"
       inkscape:connector-curvature="0" />
    <path
       d="m 209.81,158.39332 c -0.90872,3.4458 -5.5925,5.1981 -16.8,2.2424 -28.689,-8.5488 -17.808,-17.839 3.6055,-12.406 11.208,2.9557 14.103,6.7174 13.195,10.163 -7.4922,-1.9756 -36.701,-9.6791 0,0 z m -16.804,2.2303 C 185.242,158.60302 0.25600004,106.10062 0.99600002,103.32262 1.72823,100.54462 173.576,142.15662 196.616,148.22962 c 1.6669,3.9668 0.6783,12.758 -3.609,12.394 z"
       id="path4"
       inkscape:connector-curvature="0" />
    <path
       d="m 209.81,41.850668 c -0.90871,-3.4457 -5.5925,-5.1981 -16.8,-2.2424 -28.689,8.5488 -17.808,17.839 3.6055,12.406 11.208,-2.9557 14.103,-6.7174 13.195,-10.163 -7.4922,1.9756 -36.701,9.6791 0,0 z m -16.804,-2.2303 c -7.764,2.0206 -192.74999996,54.523 -192.00999998,57.301 C 1.72823,99.699363 173.576,58.087368 196.616,52.014368 c 1.6669,-3.9668 0.67831,-12.758 -3.609,-12.394 z"
       id="path6"
       inkscape:connector-curvature="0" />
    <path
       d="m 100.63534,224.18747 c -1.911011,1.7011 -5.408806,0.89116 -10.942006,-5.3246 -13.773,-16.499 -3.5765,-17.74 7.0798,-5.9921 5.533306,6.2158 5.773106,9.6154 3.862306,11.317 -3.698906,-4.155 -18.119006,-20.354 0,0 z m -10.939006,-5.3332 c -3.8437,-4.2898 -93.6930006,-109.1 -92.1520006,-110.48 1.54039998,-1.3716 87.8520006,91.715 99.2290006,104.49 -0.57665,3.0349 -4.6563,7.9025 -7.0771,5.9835 z"
       id="path8"
       inkscape:connector-curvature="0" />
    <path
       d="m 49.765334,217.78747 c -1.7791,0.90264 -4.2553,-0.40359 -7.1913,-6.1904 -7.1041,-15.178 0.83085,-14.086 6.5294,-3.1101 2.936,5.7868 2.4408,8.3976 0.66182,9.3004 -1.9627,-3.8682 -9.6141,-18.949 0,0 z m -7.1875,-6.1963 c -2.0451,-3.9986 -48.9470006,-100.89 -47.5130006,-101.62 1.4342,-0.72786 48.0010006,86.619 54.0390006,98.515 -1.0382,2.1736 -5.0821,5.0324 -6.5257,3.1041 z"
       id="path10"
       inkscape:connector-curvature="0" />
    <path
       d="m 100.26933,172.82747 c 1.10261,-1.6626 0.0919,-4.2734 -5.315996,-7.8597 -14.253,-8.814 -14.088,-0.80594 -3.8453,6.1254 5.4079,3.5863 8.058502,3.3968 9.161196,1.7344 -3.614896,-2.3974 -17.708996,-11.744 0,0 z m -5.322296,-7.8567 c -3.7349,-2.4944 -94.54400066,-60.301 -95.43300064,-58.961 -0.88903996,1.3402 80.47800064,57.709 91.59400064,65.083 2.2792,-0.77956 5.587,-4.4651 3.8389,-6.1224 z"
       id="path12"
       inkscape:connector-curvature="0" />
    <path
       d="m 100.48433,-23.846497 c -1.911001,-1.7011 -5.408796,-0.89116 -10.941996,5.3246 -13.773,16.4989973 -3.5765,17.73999728 7.0798,5.9921 5.533306,-6.2158 5.773106,-9.6154 3.862296,-11.317 -3.698896,4.155 -18.118996,20.3539973 0,0 z m -10.938996,5.3332 c -3.8437,4.2898 -93.6930006,109.1 -92.1520006,110.48 1.5404,1.3716 87.8520006,-91.71500276 99.2290006,-104.49 -0.57665,-3.0349 -4.6563,-7.9025 -7.0771,-5.9835 z"
       id="path14"
       inkscape:connector-curvature="0" />
    <path
       d="m 49.615334,-17.449497 c -1.7791,-0.90264 -4.2553,0.40359 -7.1913,6.1904 -7.1041,15.1779972 0.83085,14.0859972 6.5294,3.1100988 2.936,-5.7867988 2.4408,-8.3976988 0.66182,-9.3004988 -1.9627,3.8682 -9.6141,18.9489972 0,0 z m -7.1875,6.1963 c -2.0451,3.9986982 -48.9470006,100.89 -47.5130006,101.62 1.4342,0.72786 48.0010006,-86.6190028 54.0390006,-98.5150012 -1.0382,-2.1735988 -5.0821,-5.0323988 -6.5257,-3.1040988 z"
       id="path16"
       inkscape:connector-curvature="0" />
    <path
       d="m 100.11933,27.507503 c 1.10261,1.6626 0.0919,4.2734 -5.315996,7.8597 -14.253,8.814 -14.088,0.80594 -3.8453,-6.1254 5.4079,-3.5863 8.058502,-3.3968 9.161196,-1.7344 -3.614896,2.3974 -17.708996,11.744 0,0 z m -5.322296,7.8567 c -3.7349,2.4944 -94.54400066,60.301 -95.43300062,58.961 -0.88903998,-1.3402 80.47800062,-57.709 91.59400062,-65.083 2.2792,0.77956 5.587,4.4651 3.8389,6.1224 z"
       id="path18"
       inkscape:connector-curvature="0" />
  </g>
</svg>
